<svg width="25" height="27" viewBox="0 0 25 27" fill="none" xmlns="http://www.w3.org/2000/svg">
<path d="M2.41327 24.5817C-0.847334 21.4024 -0.786563 16.2755 2.49061 13.1077L14.196 1.79299C16.669 -0.597559 20.6888 -0.59777 23.162 1.79299C25.6112 4.16045 25.6142 7.98026 23.162 10.3505L12.9584 20.204C11.2923 21.8144 8.57035 21.7919 6.93257 20.1514C5.35473 18.5709 5.40534 16.0659 7.0136 14.5113L15.035 6.76805C15.3799 6.43509 15.9452 6.42939 16.2976 6.75534L17.5733 7.93548C17.9257 8.26149 17.9317 8.79569 17.5868 9.12865L9.56622 16.8712C9.291 17.1372 9.27404 17.5793 9.53006 17.8358C9.77404 18.0801 10.1576 18.0842 10.4055 17.8445L20.6091 7.99101C21.7036 6.93306 21.7036 5.2106 20.6085 4.15206C19.5377 3.11705 17.8207 3.11652 16.7495 4.15206L5.04407 15.4667C3.10417 17.342 3.07426 20.3773 4.97761 22.2332C6.87549 24.0838 9.94329 24.0862 11.8447 22.2483L21.4462 12.9671C21.7909 12.6339 22.3562 12.6279 22.7089 12.9536L23.9855 14.133C24.3381 14.4587 24.3445 14.9929 23.9998 15.3261L14.3982 24.6073C11.0736 27.8208 5.69602 27.7827 2.41327 24.5817Z" fill="#464646"/>
</svg>
