<svg width="19" height="16" viewBox="0 0 19 16" fill="none" xmlns="http://www.w3.org/2000/svg">
<path d="M0.678571 2.93878H18.3214C18.6962 2.93878 19 2.64641 19 2.28571V0.653061C19 0.292367 18.6962 0 18.3214 0H0.678571C0.303788 0 0 0.292367 0 0.653061V2.28571C0 2.64641 0.303788 2.93878 0.678571 2.93878ZM0.678571 9.46939H18.3214C18.6962 9.46939 19 9.17702 19 8.81633V7.18367C19 6.82298 18.6962 6.53061 18.3214 6.53061H0.678571C0.303788 6.53061 0 6.82298 0 7.18367V8.81633C0 9.17702 0.303788 9.46939 0.678571 9.46939ZM0.678571 16H18.3214C18.6962 16 19 15.7076 19 15.3469V13.7143C19 13.3536 18.6962 13.0612 18.3214 13.0612H0.678571C0.303788 13.0612 0 13.3536 0 13.7143V15.3469C0 15.7076 0.303788 16 0.678571 16Z" fill="#383838"/>
</svg>
